<?xml version="1.0" standalone="no"?><!DOCTYPE svg PUBLIC "-//W3C//DTD SVG 1.1//EN" "http://www.w3.org/Graphics/SVG/1.1/DTD/svg11.dtd"><svg t="1761874701710" class="icon" viewBox="0 0 1024 1024" version="1.1" xmlns="http://www.w3.org/2000/svg" p-id="14521" xmlns:xlink="http://www.w3.org/1999/xlink" width="200" height="200"><path d="M733.76 960 733.76 960l-4.352 0c-102.4-5.376-240.704-106.752-370.112-270.976L311.552 628.736C182.144 464.512 114.368 304.064 130.304 199.744 141.44 126.144 245.696 64 305.28 64c29.312 0 40 15.296 43.84 24.512C382.592 151.552 424.32 260.928 424.64 300.16l0 2.752L423.68 305.536C416.192 326.144 399.616 336 384.896 344.768 365.504 356.288 354.56 363.776 353.152 385.472 352.832 392 358.208 422.016 443.52 532.352L480 578.624c85.632 106.112 112.512 117.504 118.72 118.4 20.672 3.136 30.528-6.144 45.312-23.36 11.264-13.248 24.064-27.904 45.12-31.104l2.816-0.512 2.56 0.896c37.376 8 132.48 72.512 186.88 120.512 7.68 5.376 21.312 21.632 10.56 57.28C875.072 876.736 801.28 960 733.76 960L733.76 960z" fill="#272635" p-id="14522"></path></svg>